# Made in Blockbench 4.10.3
mtllib catenary_positioning_tool.mtl

o cuboid
v -0.00625 1 -0.24375
v 0.00625 1 -0.24375
v -0.00625 -9 -0.24375
v 0.00625 -9 -0.24375
v -0.00625 1 -0.25625
v 0.00625 1 -0.25625
v -0.00625 -9 -0.25625
v 0.00625 -9 -0.25625
vt 1 1
vt 0.9375 1
vt 0.9375 0.0625
vt 1 0.0625
vt 1 0.0625
vt 1 1
vt 0.9375 1
vt 0.9375 0.0625
vt 0.9375 0.06249999999999856
vt 1 0.06249999999999856
vt 1 0.9999999999999986
vt 0.9375 0.9999999999999986
vt 1 0.06249999999999856
vt 1 0.9999999999999986
vt 0.9375 0.9999999999999986
vt 0.9375 0.06249999999999856
vt 1 0.0625
vt 1 1
vt 0.9375 1
vt 0.9375 0.0625
vt 1 1
vt 0.9375 1
vt 0.9375 0.0625
vt 1 0.0625
vn 0 0 1
vn 0 0 -1
vn 0 1 0
vn 0 -1 0
vn -1 0 0
vn 1 0 0
usemtl m_0cfc551f-81c2-f60f-9827-b6e7e245ff18
f 2/1/1 1/2/1 3/3/1 4/4/1
f 7/5/2 5/6/2 6/7/2 8/8/2
f 5/9/3 1/10/3 2/11/3 6/12/3
f 4/13/4 3/14/4 7/15/4 8/16/4
f 3/17/5 1/18/5 5/19/5 7/20/5
f 6/21/6 2/22/6 4/23/6 8/24/6
o cuboid
v -0.00625 1 0.25625
v 0.00625 1 0.25625
v -0.00625 -9 0.25625
v 0.00625 -9 0.25625
v -0.00625 1 0.24375
v 0.00625 1 0.24375
v -0.00625 -9 0.24375
v 0.00625 -9 0.24375
vt 1 1
vt 0.9375 1
vt 0.9375 0.0625
vt 1 0.0625
vt 1 0.0625
vt 1 1
vt 0.9375 1
vt 0.9375 0.0625
vt 0.9375 0.06249999999999856
vt 1 0.06249999999999856
vt 1 0.9999999999999986
vt 0.9375 0.9999999999999986
vt 1 0.06249999999999856
vt 1 0.9999999999999986
vt 0.9375 0.9999999999999986
vt 0.9375 0.06249999999999856
vt 1 0.0625
vt 1 1
vt 0.9375 1
vt 0.9375 0.0625
vt 1 1
vt 0.9375 1
vt 0.9375 0.0625
vt 1 0.0625
vn 0 0 1
vn 0 0 -1
vn 0 1 0
vn 0 -1 0
vn -1 0 0
vn 1 0 0
usemtl m_0cfc551f-81c2-f60f-9827-b6e7e245ff18
f 10/25/7 9/26/7 11/27/7 12/28/7
f 15/29/8 13/30/8 14/31/8 16/32/8
f 13/33/9 9/34/9 10/35/9 14/36/9
f 12/37/10 11/38/10 15/39/10 16/40/10
f 11/41/11 9/42/11 13/43/11 15/44/11
f 14/45/12 10/46/12 12/47/12 16/48/12
o cuboid
v -0.00625 1 -0.71875
v 0.00625 1 -0.71875
v -0.00625 -9 -0.71875
v 0.00625 -9 -0.71875
v -0.00625 1 -0.73125
v 0.00625 1 -0.73125
v -0.00625 -9 -0.73125
v 0.00625 -9 -0.73125
vt 1 1
vt 0.9375 1
vt 0.9375 0.0625
vt 1 0.0625
vt 1 0.0625
vt 1 1
vt 0.9375 1
vt 0.9375 0.0625
vt 0.9375 0.06249999999999856
vt 1 0.06249999999999856
vt 1 0.9999999999999986
vt 0.9375 0.9999999999999986
vt 1 0.06249999999999856
vt 1 0.9999999999999986
vt 0.9375 0.9999999999999986
vt 0.9375 0.06249999999999856
vt 1 0.0625
vt 1 1
vt 0.9375 1
vt 0.9375 0.0625
vt 1 1
vt 0.9375 1
vt 0.9375 0.0625
vt 1 0.0625
vn 0 0 1
vn 0 0 -1
vn 0 1 0
vn 0 -1 0
vn -1 0 0
vn 1 0 0
usemtl m_0cfc551f-81c2-f60f-9827-b6e7e245ff18
f 18/49/13 17/50/13 19/51/13 20/52/13
f 23/53/14 21/54/14 22/55/14 24/56/14
f 21/57/15 17/58/15 18/59/15 22/60/15
f 20/61/16 19/62/16 23/63/16 24/64/16
f 19/65/17 17/66/17 21/67/17 23/68/17
f 22/69/18 18/70/18 20/71/18 24/72/18
o cuboid
v -0.00625 1 0.73125
v 0.00625 1 0.73125
v -0.00625 -9 0.73125
v 0.00625 -9 0.73125
v -0.00625 1 0.71875
v 0.00625 1 0.71875
v -0.00625 -9 0.71875
v 0.00625 -9 0.71875
vt 1 1
vt 0.9375 1
vt 0.9375 0.0625
vt 1 0.0625
vt 1 0.0625
vt 1 1
vt 0.9375 1
vt 0.9375 0.0625
vt 0.9375 0.06249999999999856
vt 1 0.06249999999999856
vt 1 0.9999999999999986
vt 0.9375 0.9999999999999986
vt 1 0.06249999999999856
vt 1 0.9999999999999986
vt 0.9375 0.9999999999999986
vt 0.9375 0.06249999999999856
vt 1 0.0625
vt 1 1
vt 0.9375 1
vt 0.9375 0.0625
vt 1 1
vt 0.9375 1
vt 0.9375 0.0625
vt 1 0.0625
vn 0 0 1
vn 0 0 -1
vn 0 1 0
vn 0 -1 0
vn -1 0 0
vn 1 0 0
usemtl m_0cfc551f-81c2-f60f-9827-b6e7e245ff18
f 26/73/19 25/74/19 27/75/19 28/76/19
f 31/77/20 29/78/20 30/79/20 32/80/20
f 29/81/21 25/82/21 26/83/21 30/84/21
f 28/85/22 27/86/22 31/87/22 32/88/22
f 27/89/23 25/90/23 29/91/23 31/92/23
f 30/93/24 26/94/24 28/95/24 32/96/24
o cuboid
v -0.03125 0 0.03125
v 0.03125 0 0.03125
v -0.03125 -1 0.03125
v 0.03125 -1 0.03125
v -0.03125 0 -0.03125
v 0.03125 0 -0.03125
v -0.03125 -1 -0.03125
v 0.03125 -1 -0.03125
vt 0.0625 1
vt 0 1
vt 0 0
vt 0.0625 0
vt 0.0625 0
vt 0.0625 1
vt 0 1
vt 0 0
vt 0.0625 0
vt 0.0625 1
vt 0 1
vt 0 0
vt 0.0625 1
vt 0 1
vt 0 0
vt 0.0625 0
vn 0 0 1
vn 0 0 -1
vn -1 0 0
vn 1 0 0
usemtl m_0cfc551f-81c2-f60f-9827-b6e7e245ff18
f 34/97/25 33/98/25 35/99/25 36/100/25
f 39/101/26 37/102/26 38/103/26 40/104/26
f 35/105/27 33/106/27 37/107/27 39/108/27
f 38/109/28 34/110/28 36/111/28 40/112/28
o cuboid
v -0.03125 -1 0.03125
v 0.03125 -1 0.03125
v -0.03125 -2 0.03125
v 0.03125 -2 0.03125
v -0.03125 -1 -0.03125
v 0.03125 -1 -0.03125
v -0.03125 -2 -0.03125
v 0.03125 -2 -0.03125
vt 0.125 1
vt 0.0625 1
vt 0.0625 0
vt 0.125 0
vt 0.125 0
vt 0.125 1
vt 0.0625 1
vt 0.0625 0
vt 0.125 0
vt 0.125 1
vt 0.0625 1
vt 0.0625 0
vt 0.125 1
vt 0.0625 1
vt 0.0625 0
vt 0.125 0
vn 0 0 1
vn 0 0 -1
vn -1 0 0
vn 1 0 0
usemtl m_0cfc551f-81c2-f60f-9827-b6e7e245ff18
f 42/113/29 41/114/29 43/115/29 44/116/29
f 47/117/30 45/118/30 46/119/30 48/120/30
f 43/121/31 41/122/31 45/123/31 47/124/31
f 46/125/32 42/126/32 44/127/32 48/128/32
o cuboid
v -0.03125 -2 0.03125
v 0.03125 -2 0.03125
v -0.03125 -3 0.03125
v 0.03125 -3 0.03125
v -0.03125 -2 -0.03125
v 0.03125 -2 -0.03125
v -0.03125 -3 -0.03125
v 0.03125 -3 -0.03125
vt 0.1875 1
vt 0.125 1
vt 0.125 0
vt 0.1875 0
vt 0.1875 0
vt 0.1875 1
vt 0.125 1
vt 0.125 0
vt 0.1875 0
vt 0.1875 1
vt 0.125 1
vt 0.125 0
vt 0.1875 1
vt 0.125 1
vt 0.125 0
vt 0.1875 0
vn 0 0 1
vn 0 0 -1
vn -1 0 0
vn 1 0 0
usemtl m_0cfc551f-81c2-f60f-9827-b6e7e245ff18
f 50/129/33 49/130/33 51/131/33 52/132/33
f 55/133/34 53/134/34 54/135/34 56/136/34
f 51/137/35 49/138/35 53/139/35 55/140/35
f 54/141/36 50/142/36 52/143/36 56/144/36
o cuboid
v -0.03125 -3 0.03125
v 0.03125 -3 0.03125
v -0.03125 -4 0.03125
v 0.03125 -4 0.03125
v -0.03125 -3 -0.03125
v 0.03125 -3 -0.03125
v -0.03125 -4 -0.03125
v 0.03125 -4 -0.03125
vt 0.25 1
vt 0.1875 1
vt 0.1875 0
vt 0.25 0
vt 0.25 0
vt 0.25 1
vt 0.1875 1
vt 0.1875 0
vt 0.25 0
vt 0.25 1
vt 0.1875 1
vt 0.1875 0
vt 0.25 1
vt 0.1875 1
vt 0.1875 0
vt 0.25 0
vn 0 0 1
vn 0 0 -1
vn -1 0 0
vn 1 0 0
usemtl m_0cfc551f-81c2-f60f-9827-b6e7e245ff18
f 58/145/37 57/146/37 59/147/37 60/148/37
f 63/149/38 61/150/38 62/151/38 64/152/38
f 59/153/39 57/154/39 61/155/39 63/156/39
f 62/157/40 58/158/40 60/159/40 64/160/40
o cuboid
v -0.03125 -4 0.03125
v 0.03125 -4 0.03125
v -0.03125 -5 0.03125
v 0.03125 -5 0.03125
v -0.03125 -4 -0.03125
v 0.03125 -4 -0.03125
v -0.03125 -5 -0.03125
v 0.03125 -5 -0.03125
vt 0.3125 1
vt 0.25 1
vt 0.25 0
vt 0.3125 0
vt 0.3125 0
vt 0.3125 1
vt 0.25 1
vt 0.25 0
vt 0.3125 0
vt 0.3125 1
vt 0.25 1
vt 0.25 0
vt 0.3125 1
vt 0.25 1
vt 0.25 0
vt 0.3125 0
vn 0 0 1
vn 0 0 -1
vn -1 0 0
vn 1 0 0
usemtl m_0cfc551f-81c2-f60f-9827-b6e7e245ff18
f 66/161/41 65/162/41 67/163/41 68/164/41
f 71/165/42 69/166/42 70/167/42 72/168/42
f 67/169/43 65/170/43 69/171/43 71/172/43
f 70/173/44 66/174/44 68/175/44 72/176/44
o cuboid
v -0.03125 -5 0.03125
v 0.03125 -5 0.03125
v -0.03125 -6 0.03125
v 0.03125 -6 0.03125
v -0.03125 -5 -0.03125
v 0.03125 -5 -0.03125
v -0.03125 -6 -0.03125
v 0.03125 -6 -0.03125
vt 0.375 1
vt 0.3125 1
vt 0.3125 0
vt 0.375 0
vt 0.375 0
vt 0.375 1
vt 0.3125 1
vt 0.3125 0
vt 0.375 0
vt 0.375 1
vt 0.3125 1
vt 0.3125 0
vt 0.375 1
vt 0.3125 1
vt 0.3125 0
vt 0.375 0
vn 0 0 1
vn 0 0 -1
vn -1 0 0
vn 1 0 0
usemtl m_0cfc551f-81c2-f60f-9827-b6e7e245ff18
f 74/177/45 73/178/45 75/179/45 76/180/45
f 79/181/46 77/182/46 78/183/46 80/184/46
f 75/185/47 73/186/47 77/187/47 79/188/47
f 78/189/48 74/190/48 76/191/48 80/192/48
o cuboid
v -0.03125 -6 0.03125
v 0.03125 -6 0.03125
v -0.03125 -7 0.03125
v 0.03125 -7 0.03125
v -0.03125 -6 -0.03125
v 0.03125 -6 -0.03125
v -0.03125 -7 -0.03125
v 0.03125 -7 -0.03125
vt 0.4375 1
vt 0.375 1
vt 0.375 0
vt 0.4375 0
vt 0.4375 0
vt 0.4375 1
vt 0.375 1
vt 0.375 0
vt 0.4375 0
vt 0.4375 1
vt 0.375 1
vt 0.375 0
vt 0.4375 1
vt 0.375 1
vt 0.375 0
vt 0.4375 0
vn 0 0 1
vn 0 0 -1
vn -1 0 0
vn 1 0 0
usemtl m_0cfc551f-81c2-f60f-9827-b6e7e245ff18
f 82/193/49 81/194/49 83/195/49 84/196/49
f 87/197/50 85/198/50 86/199/50 88/200/50
f 83/201/51 81/202/51 85/203/51 87/204/51
f 86/205/52 82/206/52 84/207/52 88/208/52
o cuboid
v -0.03125 -7 0.03125
v 0.03125 -7 0.03125
v -0.03125 -8 0.03125
v 0.03125 -8 0.03125
v -0.03125 -7 -0.03125
v 0.03125 -7 -0.03125
v -0.03125 -8 -0.03125
v 0.03125 -8 -0.03125
vt 0.5 1
vt 0.4375 1
vt 0.4375 0
vt 0.5 0
vt 0.5 0
vt 0.5 1
vt 0.4375 1
vt 0.4375 0
vt 0.5 0
vt 0.5 1
vt 0.4375 1
vt 0.4375 0
vt 0.5 1
vt 0.4375 1
vt 0.4375 0
vt 0.5 0
vn 0 0 1
vn 0 0 -1
vn -1 0 0
vn 1 0 0
usemtl m_0cfc551f-81c2-f60f-9827-b6e7e245ff18
f 90/209/53 89/210/53 91/211/53 92/212/53
f 95/213/54 93/214/54 94/215/54 96/216/54
f 91/217/55 89/218/55 93/219/55 95/220/55
f 94/221/56 90/222/56 92/223/56 96/224/56
o cuboid
v -0.03125 1 0.03125
v 0.03125 1 0.03125
v -0.03125 0 0.03125
v 0.03125 0 0.03125
v -0.03125 1 -0.03125
v 0.03125 1 -0.03125
v -0.03125 0 -0.03125
v 0.03125 0 -0.03125
vt 1 1
vt 0.9375 1
vt 0.9375 0
vt 1 0
vt 1 0
vt 1 1
vt 0.9375 1
vt 0.9375 0
vt 0.9375 0.9375
vt 1 0.9375
vt 1 1
vt 0.9375 1
vt 1 0
vt 1 1
vt 0.9375 1
vt 0.9375 0
vt 1 1
vt 0.9375 1
vt 0.9375 0
vt 1 0
vn 0 0 1
vn 0 0 -1
vn 0 1 0
vn -1 0 0
vn 1 0 0
usemtl m_0cfc551f-81c2-f60f-9827-b6e7e245ff18
f 98/225/57 97/226/57 99/227/57 100/228/57
f 103/229/58 101/230/58 102/231/58 104/232/58
f 101/233/59 97/234/59 98/235/59 102/236/59
f 99/237/60 97/238/60 101/239/60 103/240/60
f 102/241/61 98/242/61 100/243/61 104/244/61
o cuboid
v -0.03125 -8 0.03125
v 0.03125 -8 0.03125
v -0.03125 -9 0.03125
v 0.03125 -9 0.03125
v -0.03125 -8 -0.03125
v 0.03125 -8 -0.03125
v -0.03125 -9 -0.03125
v 0.03125 -9 -0.03125
vt 0.5625 1
vt 0.5 1
vt 0.5 0
vt 0.5625 0
vt 0.5625 0
vt 0.5625 1
vt 0.5 1
vt 0.5 0
vt 0.5625 0.9375
vt 0.5625 1
vt 0.5 1
vt 0.5 0.9375
vt 0.5625 0
vt 0.5625 1
vt 0.5 1
vt 0.5 0
vt 0.5625 1
vt 0.5 1
vt 0.5 0
vt 0.5625 0
vn 0 0 1
vn 0 0 -1
vn 0 -1 0
vn -1 0 0
vn 1 0 0
usemtl m_0cfc551f-81c2-f60f-9827-b6e7e245ff18
f 106/245/62 105/246/62 107/247/62 108/248/62
f 111/249/63 109/250/63 110/251/63 112/252/63
f 108/253/64 107/254/64 111/255/64 112/256/64
f 107/257/65 105/258/65 109/259/65 111/260/65
f 110/261/66 106/262/66 108/263/66 112/264/66